
        <svg xmlns="http://www.w3.org/2000/svg" xmlns:xlink="http://www.w3.org/1999/xlink" version="1.1" width="3171.4285714285716" 
        height="1282.797074868616" viewBox="0 0 3171.4285714285716 1282.797074868616">
			
			<g transform="scale(8.571428571428571) translate(10, 10)">
				<defs id="SvgjsDefs2319"></defs><g id="SvgjsG2320" featureKey="symbolFeature-0" transform="matrix(1.4227642276422765,0,0,1.4227642276422765,103.61178861788618,-27.388211382113823)" fill="#48466d"><title xmlns="http://www.w3.org/2000/svg">Engineering</title><path xmlns="http://www.w3.org/2000/svg" d="M50.92,34.33a2,2,0,0,1,0-.27,1.5,1.5,0,0,1,3,0v0l6.46,6h.15l3.23-3.5H61.1a1,1,0,0,1-1-1,1,1,0,0,1,.43-.82.94.94,0,0,1,.57-.18h5a1,1,0,0,1,1,1v5a1,1,0,0,1-.65.93.81.81,0,0,1-.35.07,1,1,0,0,1-1-1V38.1L62,41.49a.68.68,0,0,1,0,.14,1.5,1.5,0,0,1-3,0v0l-6.46-6h0L45.8,44.22c0,.05,0,.1,0,.16a1.5,1.5,0,0,1-1.5,1.5,1.41,1.41,0,0,1-.41-.07l-6.24,3a1.5,1.5,0,1,1-1.43-1.92,1.52,1.52,0,0,1,.57.11l6-2.89a1.49,1.49,0,0,1,1.47-1.22ZM80.75,45.44v9.12a1,1,0,0,1-1,1H75.4A25.31,25.31,0,0,1,71.89,64L75,67.1a1,1,0,0,1,.29.71,1.05,1.05,0,0,1-.29.71L68.52,75a1,1,0,0,1-1.42,0L64,71.9a25.62,25.62,0,0,1-8.46,3.5v4.35a1,1,0,0,1-1,1H45.44a1,1,0,0,1-1-1V75.4A25.67,25.67,0,0,1,36,71.9L32.9,75a1,1,0,0,1-1.42,0L25,68.52a1,1,0,0,1,0-1.42L28.1,64a25.67,25.67,0,0,1-3.5-8.47H20.25a1,1,0,0,1-1-1V45.44a1,1,0,0,1,1-1H24.6A25.31,25.31,0,0,1,28.11,36L25,32.9a1,1,0,0,1-.29-.71,1.05,1.05,0,0,1,.29-.71L31.48,25a1,1,0,0,1,1.42,0L36,28.1a25.54,25.54,0,0,1,8.46-3.5V20.25a1,1,0,0,1,1-1h9.12a1,1,0,0,1,1,1V24.6A25.59,25.59,0,0,1,64,28.1L67.1,25a1,1,0,0,1,1.42,0L75,31.48a1,1,0,0,1,0,1.42L71.9,36a25.67,25.67,0,0,1,3.5,8.47h4.35A1,1,0,0,1,80.75,45.44Zm-2,1H74.58a1,1,0,0,1-1-.82,23.7,23.7,0,0,0-3.81-9.21,1,1,0,0,1,.11-1.28l2.95-2.94-5-5-2.94,3a1,1,0,0,1-1.28.11,23.7,23.7,0,0,0-9.21-3.81,1,1,0,0,1-.82-1V21.25H46.44v4.17a1,1,0,0,1-.82,1,23.65,23.65,0,0,0-9.2,3.81,1,1,0,0,1-1.28-.11l-3-3-5,5,2.95,2.94a1,1,0,0,1,.11,1.28,23.44,23.44,0,0,0-3.82,9.21,1,1,0,0,1-1,.82H21.25v7.12h4.17a1,1,0,0,1,1,.82,23.7,23.7,0,0,0,3.81,9.21,1,1,0,0,1-.11,1.28l-3,2.94,5,5,2.94-2.95a1,1,0,0,1,1.28-.11,23.7,23.7,0,0,0,9.21,3.81,1,1,0,0,1,.82,1v4.17h7.12V74.58a1,1,0,0,1,.82-1,23.72,23.72,0,0,0,9.2-3.81,1,1,0,0,1,1.28.11l3,2.95,5-5-3-2.94a1,1,0,0,1-.11-1.28,23.44,23.44,0,0,0,3.82-9.21,1,1,0,0,1,1-.82h4.17ZM56.39,34.79a14.39,14.39,0,0,1,1.8.9,5.59,5.59,0,0,1,1.32-1.54L59.22,34a18.25,18.25,0,0,0-2.9-1.35,3.69,3.69,0,0,1,.07,2.17ZM67.87,45.18a18.35,18.35,0,0,1-1.84,14,17.65,17.65,0,0,1-2.18,3,15.93,15.93,0,0,1-2,1.94A17.79,17.79,0,0,1,59.22,66l-.12.06a17.7,17.7,0,0,1-2,1c-.44.18-.88.34-1.33.48s-.63.21-1,.3A18.65,18.65,0,0,1,50,68.5a4.18,4.18,0,0,1-.5,0,16,16,0,0,1-2.08-.16,17.08,17.08,0,0,1-2.24-.45,18.2,18.2,0,0,1-4.24-1.75L40.78,66c-.4-.23-.8-.48-1.18-.74a16.72,16.72,0,0,1-2-1.58,17.36,17.36,0,0,1-2.75-3.11A14.12,14.12,0,0,1,34,59.22a18.47,18.47,0,0,1-1.11-2.28,19.58,19.58,0,0,1-.72-2.12A18.47,18.47,0,0,1,49,31.54a4,4,0,0,0-.67,2.06,16.22,16.22,0,0,0-6.51,2.09,16.52,16.52,0,0,0-6.08,6.09,16.17,16.17,0,0,0-1.64,3.92A16.8,16.8,0,0,0,33.5,50a15.9,15.9,0,0,0,.28,3H38.6a1,1,0,0,1,1,1v8.79a16.07,16.07,0,0,0,1.34,1V49.62a1,1,0,0,1,1-1h4.75a1,1,0,0,1,1,1V66.33a12,12,0,0,0,1.33.13V41.63a1,1,0,0,1,1-1h4.75a1,1,0,0,1,1,1V65.45a14.27,14.27,0,0,0,1.33-.55V45.62a1,1,0,0,1,1-1h4.75a1,1,0,0,1,1,1V59c.16-.24.31-.48.45-.73a16.17,16.17,0,0,0,1.64-3.92A16.8,16.8,0,0,0,66.5,50a16.38,16.38,0,0,0-.57-4.3,17.49,17.49,0,0,0-.65-1.93A5.88,5.88,0,0,0,67,42.67,19.21,19.21,0,0,1,67.87,45.18ZM37.6,60.88V55H34.85v1.53a14.77,14.77,0,0,0,.84,1.69A16.75,16.75,0,0,0,37.6,60.88Zm8.09,5.06V50.62H42.94V64.91A15.88,15.88,0,0,0,45.69,65.94Zm8.08.12V42.63H51V66.46A16.88,16.88,0,0,0,53.77,66.06Zm8.08-4.59V46.62H59.1V63.76A16.31,16.31,0,0,0,61.85,61.47Z"></path></g><g id="SvgjsG2321" featureKey="nameFeature-0" transform="matrix(0.7239182428369253,0,0,0.7239182428369253,-1.9980152063038856,100.21066439514343)" fill="#48466d"><path d="M15 11.440000000000001 c4.0532 0 7.24 1.2533 9.56 3.76 s3.48 5.96 3.48 10.36 c0 4.56 -1.1667 8.1068 -3.5 10.64 s-5.46 3.8 -9.38 3.8 l-12.4 0 l0 -28.56 l12.24 0 z M14.6 34.72 c2.2667 0 4.0268 -0.74668 5.28 -2.24 s1.88 -3.6133 1.88 -6.36 c0 -3.1467 -0.67332 -5.5 -2.02 -7.06 s-3.42 -2.34 -6.22 -2.34 l-4.48 0 l0 18 l5.56 0 z M46.64 11.440000000000001 l10.68 28.56 l-6.52 0 l-2.16 -6.36 l-10.68 0 l-2.24 6.36 l-6.36 0 l10.84 -28.56 l6.44 0 z M43.32 18.48 l-3.72 10.48 l7.4 0 l-3.6 -10.48 l-0.08 0 z M78 11.440000000000001 l0 5.28 l-8.56 0 l0 23.28 l-6.28 0 l0 -23.28 l-8.56 0 l0 -5.28 l23.4 0 z M92.56000000000002 11.440000000000001 l10.68 28.56 l-6.52 0 l-2.16 -6.36 l-10.68 0 l-2.24 6.36 l-6.36 0 l10.84 -28.56 l6.44 0 z M89.24000000000001 18.48 l-3.72 10.48 l7.4 0 l-3.6 -10.48 l-0.08 0 z M126.68000000000002 10.760000000000002 c3.4933 0 6.2732 0.80004 8.34 2.4 s3.1 3.8667 3.1 6.8 l-6.08 0 c-0.08 -1.44 -0.56668 -2.52 -1.46 -3.24 s-2.2733 -1.08 -4.14 -1.08 c-1.3067 0 -2.36 0.28668 -3.16 0.86 s-1.2 1.3666 -1.2 2.38 c0 0.82668 0.24668 1.4267 0.74 1.8 s1.1933 0.70664 2.1 0.99996 s2.4934 0.72 4.76 1.28 c2.3733 0.58668 4.2 1.2267 5.48 1.92 s2.2533 1.58 2.92 2.66 s1 2.4067 1 3.98 c0 1.8133 -0.48 3.4266 -1.44 4.84 s-2.36 2.4866 -4.2 3.22 s-3.92 1.1 -6.24 1.1 c-3.5467 0 -6.46 -0.88668 -8.74 -2.66 s-3.42 -4.2068 -3.42 -7.3 l0 -0.2 l6.08 0 c0 1.68 0.57332 2.98 1.72 3.9 s2.6667 1.38 4.56 1.38 c1.68 0 3.0333 -0.3 4.06 -0.9 s1.54 -1.4867 1.54 -2.66 c0 -0.77332 -0.28 -1.4266 -0.84 -1.96 s-1.3067 -0.96664 -2.24 -1.3 s-2.5066 -0.75332 -4.72 -1.26 c-2.56 -0.64 -4.4268 -1.32 -5.6 -2.04 s-2.0666 -1.5933 -2.68 -2.62 s-0.92 -2.26 -0.92 -3.7 c0 -1.7867 0.51332 -3.3467 1.54 -4.68 s2.3667 -2.32 4.02 -2.96 s3.36 -0.96 5.12 -0.96 z M157.04000000000002 11.440000000000001 l10.68 28.56 l-6.52 0 l-2.16 -6.36 l-10.68 0 l-2.24 6.36 l-6.36 0 l10.84 -28.56 l6.44 0 z M153.72000000000003 18.48 l-3.72 10.48 l7.4 0 l-3.6 -10.48 l-0.08 0 z M171.76000000000002 11.440000000000001 l6.36 20.08 l0.08 0 l6.44 -20.08 l6.48 0 l-9.48 28.56 l-7.08 0 l-9.28 -28.56 l6.48 0 z M196.96 11.440000000000001 l6.36 20.08 l0.08 0 l6.44 -20.08 l6.48 0 l-9.48 28.56 l-7.08 0 l-9.28 -28.56 l6.48 0 z M222.72 11.440000000000001 l6.68 11.28 l6.64 -11.28 l7 0 l-10.6 17.6 l0 10.96 l-6.28 0 l0 -11.12 l-10.52 -17.44 l7.08 0 z M266.40000000000003 10.760000000000002 c3.4933 0 6.2732 0.80004 8.34 2.4 s3.1 3.8667 3.1 6.8 l-6.08 0 c-0.08 -1.44 -0.56668 -2.52 -1.46 -3.24 s-2.2733 -1.08 -4.14 -1.08 c-1.3067 0 -2.36 0.28668 -3.16 0.86 s-1.2 1.3666 -1.2 2.38 c0 0.82668 0.24668 1.4267 0.74 1.8 s1.1933 0.70664 2.1 0.99996 s2.4934 0.72 4.76 1.28 c2.3733 0.58668 4.2 1.2267 5.48 1.92 s2.2533 1.58 2.92 2.66 s1 2.4067 1 3.98 c0 1.8133 -0.48 3.4266 -1.44 4.84 s-2.36 2.4866 -4.2 3.22 s-3.92 1.1 -6.24 1.1 c-3.5467 0 -6.46 -0.88668 -8.74 -2.66 s-3.42 -4.2068 -3.42 -7.3 l0 -0.2 l6.08 0 c0 1.68 0.57332 2.98 1.72 3.9 s2.6667 1.38 4.56 1.38 c1.68 0 3.0333 -0.3 4.06 -0.9 s1.54 -1.4867 1.54 -2.66 c0 -0.77332 -0.28 -1.4266 -0.84 -1.96 s-1.3067 -0.96664 -2.24 -1.3 s-2.5066 -0.75332 -4.72 -1.26 c-2.56 -0.64 -4.4268 -1.32 -5.6 -2.04 s-2.0666 -1.5933 -2.68 -2.62 s-0.92 -2.26 -0.92 -3.7 c0 -1.7867 0.51332 -3.3467 1.54 -4.68 s2.3667 -2.32 4.02 -2.96 s3.36 -0.96 5.12 -0.96 z M295.32 10.760000000000002 c4.2132 0 7.6068 1.4 10.18 4.2 s3.86 6.4268 3.86 10.88 c0 4.3468 -1.2933 7.9068 -3.88 10.68 s-5.9732 4.16 -10.16 4.16 c-4.2132 0 -7.6068 -1.3867 -10.18 -4.16 s-3.86 -6.3332 -3.86 -10.68 c0 -4.4268 1.2933 -8.0468 3.88 -10.86 s5.9732 -4.22 10.16 -4.22 z M287.56 25.84 c0 2.88 0.67996 5.1932 2.04 6.94 s3.2667 2.62 5.72 2.62 c2.4 0 4.2932 -0.86 5.68 -2.58 s2.08 -4.0468 2.08 -6.98 c0 -3.0667 -0.68668 -5.4668 -2.06 -7.2 s-3.2866 -2.6 -5.74 -2.6 c-2.4 0 -4.2868 0.86668 -5.66 2.6 s-2.06 4.1332 -2.06 7.2 z M319.92 11.440000000000001 l0 23.28 l13.92 0 l0 5.28 l-20.2 0 l0 -28.56 l6.28 0 z M343.52000000000004 11.440000000000001 l-0.000039062 17.88 c0 2.1067 0.47332 3.6467 1.42 4.62 s2.4334 1.46 4.46 1.46 c2.1867 0 3.72 -0.48668 4.6 -1.46 s1.32 -2.5133 1.32 -4.62 l0 -17.88 l6.28 0 l0 17.88 c0 3.5733 -1.02 6.36 -3.06 8.36 s-5.0868 3 -9.14 3 c-4.1332 0 -7.1932 -1 -9.18 -3 s-2.98 -4.7868 -2.98 -8.36 l0 -17.88 l6.28 0 z M388.16 11.440000000000001 l0 5.28 l-8.56 0 l0 23.28 l-6.28 0 l0 -23.28 l-8.56 0 l0 -5.28 l23.4 0 z M397.72 11.440000000000001 l0 28.56 l-6.28 0 l0 -28.56 l6.28 0 z M416.04 10.760000000000002 c4.2132 0 7.6068 1.4 10.18 4.2 s3.86 6.4268 3.86 10.88 c0 4.3468 -1.2933 7.9068 -3.88 10.68 s-5.9732 4.16 -10.16 4.16 c-4.2132 0 -7.6068 -1.3867 -10.18 -4.16 s-3.86 -6.3332 -3.86 -10.68 c0 -4.4268 1.2933 -8.0468 3.88 -10.86 s5.9732 -4.22 10.16 -4.22 z M408.28000000000003 25.84 c0 2.88 0.67996 5.1932 2.04 6.94 s3.2667 2.62 5.72 2.62 c2.4 0 4.2932 -0.86 5.68 -2.58 s2.08 -4.0468 2.08 -6.98 c0 -3.0667 -0.68668 -5.4668 -2.06 -7.2 s-3.2866 -2.6 -5.74 -2.6 c-2.4 0 -4.2868 0.86668 -5.66 2.6 s-2.06 4.1332 -2.06 7.2 z M440.6 11.440000000000001 l11.92 19.16 l0.08 0 l0 -19.16 l5.88 0 l0 28.56 l-6.28 0 l-11.88 -19.12 l-0.08 0 l0 19.12 l-5.88 0 l0 -28.56 l6.24 0 z M473.84000000000003 10.760000000000002 c3.4933 0 6.2732 0.80004 8.34 2.4 s3.1 3.8667 3.1 6.8 l-6.08 0 c-0.08 -1.44 -0.56668 -2.52 -1.46 -3.24 s-2.2733 -1.08 -4.14 -1.08 c-1.3067 0 -2.36 0.28668 -3.16 0.86 s-1.2 1.3666 -1.2 2.38 c0 0.82668 0.24668 1.4267 0.74 1.8 s1.1933 0.70664 2.1 0.99996 s2.4934 0.72 4.76 1.28 c2.3733 0.58668 4.2 1.2267 5.48 1.92 s2.2533 1.58 2.92 2.66 s1 2.4067 1 3.98 c0 1.8133 -0.48 3.4266 -1.44 4.84 s-2.36 2.4866 -4.2 3.22 s-3.92 1.1 -6.24 1.1 c-3.5467 0 -6.46 -0.88668 -8.74 -2.66 s-3.42 -4.2068 -3.42 -7.3 l0 -0.2 l6.08 0 c0 1.68 0.57332 2.98 1.72 3.9 s2.6667 1.38 4.56 1.38 c1.68 0 3.0333 -0.3 4.06 -0.9 s1.54 -1.4867 1.54 -2.66 c0 -0.77332 -0.28 -1.4266 -0.84 -1.96 s-1.3067 -0.96664 -2.24 -1.3 s-2.5066 -0.75332 -4.72 -1.26 c-2.56 -0.64 -4.4268 -1.32 -5.6 -2.04 s-2.0666 -1.5933 -2.68 -2.62 s-0.92 -2.26 -0.92 -3.7 c0 -1.7867 0.51332 -3.3467 1.54 -4.68 s2.3667 -2.32 4.02 -2.96 s3.36 -0.96 5.12 -0.96 z"></path></g>
			</g>
		</svg>
	