<?xml version="1.0" encoding="UTF-8"?>
<svg version="1.1" xmlns="http://www.w3.org/2000/svg" width="180" height="180" style="background: transparent;">

<path d="M0 0 C1.07507813 -0.00128906 2.15015625 -0.00257812 3.2578125 -0.00390625 C4.38960938 -0.00003906 5.52140625 0.00382812 6.6875 0.0078125 C7.81929688 0.00394531 8.95109375 0.00007813 10.1171875 -0.00390625 C11.19226563 -0.00261719 12.26734375 -0.00132813 13.375 0 C14.36886719 0.00112793 15.36273438 0.00225586 16.38671875 0.00341797 C18.6875 0.1328125 18.6875 0.1328125 19.6875 1.1328125 C19.75994053 3.15245449 19.77127188 5.17448374 19.75 7.1953125 C19.74097656 8.30003906 19.73195313 9.40476562 19.72265625 10.54296875 C19.71105469 11.39761719 19.69945313 12.25226562 19.6875 13.1328125 C20.615625 13.1946875 21.54375 13.2565625 22.5 13.3203125 C27.14333551 13.93626517 31.00614221 16.05692633 35.13671875 18.171875 C37.94597833 19.23018719 38.97621093 19.3404102 41.6875 18.1328125 C42.925 16.8334375 42.925 16.8334375 44.1875 15.5078125 C45.0125 14.7240625 45.8375 13.9403125 46.6875 13.1328125 C51.88037203 13.53530455 55.0374073 17.96971476 58.5 21.4453125 C59.55864258 22.46141602 59.55864258 22.46141602 60.63867188 23.49804688 C61.30060547 24.15740234 61.96253906 24.81675781 62.64453125 25.49609375 C63.25272705 26.09719971 63.86092285 26.69830566 64.48754883 27.31762695 C65.6875 29.1328125 65.6875 29.1328125 65.46582031 31.23999023 C64.52163941 33.53617421 63.28716307 35.04382357 61.625 36.8828125 C61.07714844 37.49640625 60.52929688 38.11 59.96484375 38.7421875 C59.33255859 39.43054687 59.33255859 39.43054687 58.6875 40.1328125 C59.10902344 40.91785156 59.53054687 41.70289063 59.96484375 42.51171875 C65.40630492 52.94652076 65.40630492 52.94652076 65.6875 59.1328125 C66.96947266 59.11541016 66.96947266 59.11541016 68.27734375 59.09765625 C69.93443359 59.08412109 69.93443359 59.08412109 71.625 59.0703125 C72.72714844 59.05871094 73.82929688 59.04710937 74.96484375 59.03515625 C77.6875 59.1328125 77.6875 59.1328125 78.6875 60.1328125 C78.78696453 61.90140443 78.81830217 63.67392701 78.8203125 65.4453125 C78.82160156 66.52039063 78.82289063 67.59546875 78.82421875 68.703125 C78.82035156 69.83492188 78.81648437 70.96671875 78.8125 72.1328125 C78.81636719 73.26460938 78.82023438 74.39640625 78.82421875 75.5625 C78.82228516 77.17511719 78.82228516 77.17511719 78.8203125 78.8203125 C78.81918457 79.81417969 78.81805664 80.80804688 78.81689453 81.83203125 C78.6875 84.1328125 78.6875 84.1328125 77.6875 85.1328125 C75.66785801 85.20525303 73.64582876 85.21658438 71.625 85.1953125 C70.52027344 85.18628906 69.41554687 85.17726563 68.27734375 85.16796875 C67.42269531 85.15636719 66.56804687 85.14476563 65.6875 85.1328125 C65.3471875 87.02 65.3471875 87.02 65 88.9453125 C63.73988546 94.72160396 61.27648683 99.84614092 58.6875 105.1328125 C59.20441406 105.59171875 59.72132813 106.050625 60.25390625 106.5234375 C61.24197266 107.44382813 61.24197266 107.44382813 62.25 108.3828125 C62.91128906 108.98609375 63.57257813 109.589375 64.25390625 110.2109375 C65.6875 112.1328125 65.6875 112.1328125 65.47949219 114.02124023 C63.93848538 118.12980001 60.43279332 120.89896087 57.375 123.9453125 C56.35889648 125.00395508 56.35889648 125.00395508 55.32226562 126.08398438 C54.66291016 126.74591797 54.00355469 127.40785156 53.32421875 128.08984375 C52.72311279 128.69803955 52.12200684 129.30623535 51.50268555 129.93286133 C49.6875 131.1328125 49.6875 131.1328125 47.58032227 130.91113281 C45.28413829 129.96695191 43.77648893 128.73247557 41.9375 127.0703125 C41.32390625 126.52246094 40.7103125 125.97460938 40.078125 125.41015625 C39.38976562 124.77787109 39.38976562 124.77787109 38.6875 124.1328125 C37.76130859 124.63941406 37.76130859 124.63941406 36.81640625 125.15625 C31.11325643 128.1597353 26.03373111 130.00686827 19.6875 131.1328125 C19.69910156 131.98746094 19.71070312 132.84210938 19.72265625 133.72265625 C19.73167969 134.82738281 19.74070312 135.93210938 19.75 137.0703125 C19.76160156 138.17246094 19.77320312 139.27460938 19.78515625 140.41015625 C19.6875 143.1328125 19.6875 143.1328125 18.6875 144.1328125 C16.91890807 144.23227703 15.14638549 144.26361467 13.375 144.265625 C12.29992187 144.26691406 11.22484375 144.26820313 10.1171875 144.26953125 C8.98539062 144.26566406 7.85359375 144.26179687 6.6875 144.2578125 C4.98980469 144.26361328 4.98980469 144.26361328 3.2578125 144.26953125 C2.18273437 144.26824219 1.10765625 144.26695312 0 144.265625 C-0.99386719 144.26449707 -1.98773438 144.26336914 -3.01171875 144.26220703 C-5.3125 144.1328125 -5.3125 144.1328125 -6.3125 143.1328125 C-6.38494053 141.11317051 -6.39627188 139.09114126 -6.375 137.0703125 C-6.36597656 135.96558594 -6.35695312 134.86085937 -6.34765625 133.72265625 C-6.33605469 132.86800781 -6.32445312 132.01335937 -6.3125 131.1328125 C-7.22128906 131.00326172 -7.22128906 131.00326172 -8.1484375 130.87109375 C-14.90277664 129.73844303 -20.3469565 127.45828568 -26.3125 124.1328125 C-26.77140625 124.64972656 -27.2303125 125.16664063 -27.703125 125.69921875 C-28.31671875 126.35792969 -28.9303125 127.01664062 -29.5625 127.6953125 C-30.46742187 128.68724609 -30.46742187 128.68724609 -31.390625 129.69921875 C-33.3125 131.1328125 -33.3125 131.1328125 -35.20092773 130.92480469 C-39.30948751 129.38379788 -42.07864837 125.87810582 -45.125 122.8203125 C-46.18364258 121.80420898 -46.18364258 121.80420898 -47.26367188 120.76757812 C-47.92560547 120.10822266 -48.58753906 119.44886719 -49.26953125 118.76953125 C-50.18182495 117.86787231 -50.18182495 117.86787231 -51.11254883 116.94799805 C-52.3125 115.1328125 -52.3125 115.1328125 -52.16674805 113.05786133 C-51.3125 111.1328125 -51.3125 111.1328125 -48.6875 108.6953125 C-47.90375 107.8496875 -47.12 107.0040625 -46.3125 106.1328125 C-46.71615208 101.24779854 -49.10933321 97.17716025 -51.25390625 92.8515625 C-52.34461385 90.0503356 -52.52260117 88.10655217 -52.3125 85.1328125 C-53.16714844 85.14441406 -54.02179687 85.15601562 -54.90234375 85.16796875 C-56.00707031 85.17699219 -57.11179687 85.18601562 -58.25 85.1953125 C-59.35214844 85.20691406 -60.45429687 85.21851562 -61.58984375 85.23046875 C-64.3125 85.1328125 -64.3125 85.1328125 -65.3125 84.1328125 C-65.41196453 82.36422057 -65.44330217 80.59169799 -65.4453125 78.8203125 C-65.44660156 77.74523437 -65.44789062 76.67015625 -65.44921875 75.5625 C-65.44341797 73.86480469 -65.44341797 73.86480469 -65.4375 72.1328125 C-65.44136719 71.00101562 -65.44523437 69.86921875 -65.44921875 68.703125 C-65.44792969 67.62804687 -65.44664063 66.55296875 -65.4453125 65.4453125 C-65.44418457 64.45144531 -65.44305664 63.45757812 -65.44189453 62.43359375 C-65.3125 60.1328125 -65.3125 60.1328125 -64.3125 59.1328125 C-62.29285801 59.06037197 -60.27082876 59.04904062 -58.25 59.0703125 C-56.59291016 59.08384766 -56.59291016 59.08384766 -54.90234375 59.09765625 C-54.04769531 59.10925781 -53.19304688 59.12085938 -52.3125 59.1328125 C-52.250625 58.0190625 -52.18875 56.9053125 -52.125 55.7578125 C-51.58055854 51.05048791 -49.61692545 47.49518593 -47.2734375 43.4296875 C-46.13806783 41.21580612 -46.13806783 41.21580612 -46.5 38.9921875 C-47.30952043 36.81242918 -47.30952043 36.81242918 -49.9375 34.6328125 C-50.72125 33.8078125 -51.505 32.9828125 -52.3125 32.1328125 C-51.8360608 24.95644708 -42.93231575 18.59953666 -37.953125 14.03125 C-36.3125 13.1328125 -36.3125 13.1328125 -34.26171875 13.3203125 C-32.3125 14.1328125 -32.3125 14.1328125 -29.875 16.7578125 C-29.029375 17.5415625 -28.18375 18.3253125 -27.3125 19.1328125 C-23.42327465 18.80433063 -20.24148136 17.3032848 -16.75 15.6328125 C-13.61538626 14.1372409 -10.72029675 12.83842689 -7.3125 12.1328125 C-7.22162109 10.95912109 -7.22162109 10.95912109 -7.12890625 9.76171875 C-7.04511719 8.74980469 -6.96132812 7.73789062 -6.875 6.6953125 C-6.79378906 5.68597656 -6.71257812 4.67664063 -6.62890625 3.63671875 C-6.06223062 -0.84771429 -4.08838342 0.00463986 0 0 Z " fill="#F8F8FA" transform="translate(83.3125,17.8671875)"/>
<path d="M0 0 C-0.33 1.65 -0.66 3.3 -1 5 C-1.75023437 5.13535156 -2.50046875 5.27070312 -3.2734375 5.41015625 C-13.27881675 7.51456221 -21.24317287 11.89893959 -27.6875 19.97265625 C-32.57943449 27.52894792 -35.15193393 34.80660663 -35.0625 43.75 C-35.04896484 45.50570312 -35.04896484 45.50570312 -35.03515625 47.296875 C-35.02355469 48.18890625 -35.01195312 49.0809375 -35 50 C-33.60974609 49.98259766 -33.60974609 49.98259766 -32.19140625 49.96484375 C-30.99386719 49.95582031 -29.79632813 49.94679687 -28.5625 49.9375 C-27.36753906 49.92589844 -26.17257813 49.91429687 -24.94140625 49.90234375 C-22 50 -22 50 -21 51 C-20.84259395 52.70563778 -20.74906608 54.41727244 -20.68359375 56.12890625 C-20.64169922 57.16337891 -20.59980469 58.19785156 -20.55664062 59.26367188 C-20.51732422 60.35228516 -20.47800781 61.44089844 -20.4375 62.5625 C-20.39431641 63.65498047 -20.35113281 64.74746094 -20.30664062 65.87304688 C-20.20017932 68.58189564 -20.09816484 71.29083992 -20 74 C-19.34 74.33 -18.68 74.66 -18 75 C-18 63.45 -18 51.9 -18 40 C-13.05 40 -8.1 40 -3 40 C-2 41 -2 41 -1.88647461 44.87719727 C-1.88663379 46.60694167 -1.89233151 48.33669081 -1.90234375 50.06640625 C-1.9037587 50.97502914 -1.90517365 51.88365204 -1.90663147 52.81980896 C-1.91224807 55.73407221 -1.92480335 58.64825981 -1.9375 61.5625 C-1.94251286 63.53320202 -1.94707614 65.50390524 -1.95117188 67.47460938 C-1.96222289 72.31643559 -1.97949862 77.15820495 -2 82 C-1.01 82 -0.02 82 1 82 C0.99777939 81.25053604 0.99555878 80.50107208 0.99327087 79.72889709 C0.97326821 72.68017709 0.958026 65.63146685 0.94818783 58.58272648 C0.94295998 54.9585404 0.93586413 51.3343777 0.92456055 47.71020508 C0.91372816 44.21540025 0.90772242 40.72061796 0.90512276 37.22579765 C0.90236449 35.23760611 0.89455312 33.24942369 0.88670349 31.26124573 C0.88662796 30.06007614 0.88655243 28.85890656 0.88647461 27.62133789 C0.884254 26.55766495 0.88203339 25.493992 0.87974548 24.39808655 C1 22 1 22 2 21 C6.62 21 11.24 21 16 21 C16 40.14 16 59.28 16 79 C17.98 78.505 17.98 78.505 20 78 C19.99777939 77.41340103 19.99555878 76.82680206 19.99327087 76.22242737 C19.9712179 70.13974616 19.95609336 64.05707623 19.94506836 57.97436523 C19.94002675 55.70157409 19.93319363 53.4287862 19.92456055 51.15600586 C19.91248739 47.89696449 19.90677013 44.63796583 19.90234375 41.37890625 C19.89718246 40.35599991 19.89202118 39.33309357 19.88670349 38.27919006 C19.88662796 37.33829025 19.88655243 36.39739044 19.88647461 35.42797852 C19.884254 34.59524918 19.88203339 33.76251984 19.87974548 32.90455627 C20 31 20 31 21 30 C23.16480797 29.9010706 25.33293785 29.870289 27.5 29.875 C28.6859375 29.87242188 29.871875 29.86984375 31.09375 29.8671875 C34 30 34 30 35 31 C35.15971977 33.37338639 35.2592433 35.72118272 35.31640625 38.09765625 C35.33718735 38.80651474 35.35796844 39.51537323 35.37937927 40.24571228 C35.44494598 42.51787305 35.5037923 44.79015264 35.5625 47.0625 C35.60567849 48.59962183 35.64929255 50.1367315 35.69335938 51.67382812 C35.80063449 55.4490959 35.90188137 59.2244836 36 63 C38.74556562 55.71288559 40.62031537 49.36732975 40.3125 41.5625 C40.30283203 40.80001953 40.29316406 40.03753906 40.28320312 39.25195312 C40.20604393 35.39063882 39.92162747 31.76893184 39 28 C40.32 27.34 41.64 26.68 43 26 C47.15398804 35.51955592 48.06491735 47.63448877 44.375 57.5 C37.40272654 71.90936514 28.2660897 79.86910044 13.25 85.375 C0.3910041 87.92000961 -10.96905255 86.32904625 -21.9375 79.05078125 C-31.68694472 71.67246507 -38.28187387 62.23974812 -40 50 C-41.27263268 37.08261634 -39.50448153 26.94255013 -31.75 16.1875 C-24.08582774 7.07290374 -12.47408046 -1.41750914 0 0 Z " fill="#46446B" transform="translate(87,47)"/>
<path d="M0 0 C1.07507813 -0.00128906 2.15015625 -0.00257812 3.2578125 -0.00390625 C4.38960938 -0.00003906 5.52140625 0.00382812 6.6875 0.0078125 C7.81929688 0.00394531 8.95109375 0.00007813 10.1171875 -0.00390625 C11.19226563 -0.00261719 12.26734375 -0.00132813 13.375 0 C14.36886719 0.00112793 15.36273438 0.00225586 16.38671875 0.00341797 C18.6875 0.1328125 18.6875 0.1328125 19.6875 1.1328125 C19.75994053 3.15245449 19.77127188 5.17448374 19.75 7.1953125 C19.74097656 8.30003906 19.73195313 9.40476562 19.72265625 10.54296875 C19.71105469 11.39761719 19.69945313 12.25226562 19.6875 13.1328125 C20.615625 13.1946875 21.54375 13.2565625 22.5 13.3203125 C27.14333551 13.93626517 31.00614221 16.05692633 35.13671875 18.171875 C37.94597833 19.23018719 38.97621093 19.3404102 41.6875 18.1328125 C42.925 16.8334375 42.925 16.8334375 44.1875 15.5078125 C45.0125 14.7240625 45.8375 13.9403125 46.6875 13.1328125 C51.88037203 13.53530455 55.0374073 17.96971476 58.5 21.4453125 C59.55864258 22.46141602 59.55864258 22.46141602 60.63867188 23.49804688 C61.30060547 24.15740234 61.96253906 24.81675781 62.64453125 25.49609375 C63.25272705 26.09719971 63.86092285 26.69830566 64.48754883 27.31762695 C65.6875 29.1328125 65.6875 29.1328125 65.46582031 31.23999023 C64.52163941 33.53617421 63.28716307 35.04382357 61.625 36.8828125 C61.07714844 37.49640625 60.52929688 38.11 59.96484375 38.7421875 C59.33255859 39.43054687 59.33255859 39.43054687 58.6875 40.1328125 C59.10902344 40.91785156 59.53054687 41.70289063 59.96484375 42.51171875 C65.40630492 52.94652076 65.40630492 52.94652076 65.6875 59.1328125 C66.96947266 59.11541016 66.96947266 59.11541016 68.27734375 59.09765625 C69.93443359 59.08412109 69.93443359 59.08412109 71.625 59.0703125 C72.72714844 59.05871094 73.82929688 59.04710937 74.96484375 59.03515625 C77.6875 59.1328125 77.6875 59.1328125 78.6875 60.1328125 C78.78696453 61.90140443 78.81830217 63.67392701 78.8203125 65.4453125 C78.82160156 66.52039063 78.82289063 67.59546875 78.82421875 68.703125 C78.82035156 69.83492188 78.81648437 70.96671875 78.8125 72.1328125 C78.81636719 73.26460938 78.82023438 74.39640625 78.82421875 75.5625 C78.82228516 77.17511719 78.82228516 77.17511719 78.8203125 78.8203125 C78.81918457 79.81417969 78.81805664 80.80804688 78.81689453 81.83203125 C78.6875 84.1328125 78.6875 84.1328125 77.6875 85.1328125 C75.66785801 85.20525303 73.64582876 85.21658438 71.625 85.1953125 C70.52027344 85.18628906 69.41554687 85.17726563 68.27734375 85.16796875 C67.42269531 85.15636719 66.56804687 85.14476563 65.6875 85.1328125 C65.3471875 87.02 65.3471875 87.02 65 88.9453125 C63.73988546 94.72160396 61.27648683 99.84614092 58.6875 105.1328125 C59.20441406 105.59171875 59.72132813 106.050625 60.25390625 106.5234375 C61.24197266 107.44382813 61.24197266 107.44382813 62.25 108.3828125 C62.91128906 108.98609375 63.57257813 109.589375 64.25390625 110.2109375 C65.6875 112.1328125 65.6875 112.1328125 65.47949219 114.02124023 C63.93848538 118.12980001 60.43279332 120.89896087 57.375 123.9453125 C56.35889648 125.00395508 56.35889648 125.00395508 55.32226562 126.08398438 C54.66291016 126.74591797 54.00355469 127.40785156 53.32421875 128.08984375 C52.72311279 128.69803955 52.12200684 129.30623535 51.50268555 129.93286133 C49.6875 131.1328125 49.6875 131.1328125 47.58032227 130.91113281 C45.28413829 129.96695191 43.77648893 128.73247557 41.9375 127.0703125 C41.32390625 126.52246094 40.7103125 125.97460938 40.078125 125.41015625 C39.38976562 124.77787109 39.38976562 124.77787109 38.6875 124.1328125 C37.76130859 124.63941406 37.76130859 124.63941406 36.81640625 125.15625 C31.11325643 128.1597353 26.03373111 130.00686827 19.6875 131.1328125 C19.69910156 131.98746094 19.71070312 132.84210938 19.72265625 133.72265625 C19.73167969 134.82738281 19.74070312 135.93210938 19.75 137.0703125 C19.76160156 138.17246094 19.77320312 139.27460938 19.78515625 140.41015625 C19.6875 143.1328125 19.6875 143.1328125 18.6875 144.1328125 C16.91890807 144.23227703 15.14638549 144.26361467 13.375 144.265625 C12.29992187 144.26691406 11.22484375 144.26820313 10.1171875 144.26953125 C8.98539062 144.26566406 7.85359375 144.26179687 6.6875 144.2578125 C4.98980469 144.26361328 4.98980469 144.26361328 3.2578125 144.26953125 C2.18273437 144.26824219 1.10765625 144.26695312 0 144.265625 C-0.99386719 144.26449707 -1.98773438 144.26336914 -3.01171875 144.26220703 C-5.3125 144.1328125 -5.3125 144.1328125 -6.3125 143.1328125 C-6.38494053 141.11317051 -6.39627188 139.09114126 -6.375 137.0703125 C-6.36597656 135.96558594 -6.35695312 134.86085937 -6.34765625 133.72265625 C-6.33605469 132.86800781 -6.32445312 132.01335937 -6.3125 131.1328125 C-7.22128906 131.00326172 -7.22128906 131.00326172 -8.1484375 130.87109375 C-14.90277664 129.73844303 -20.3469565 127.45828568 -26.3125 124.1328125 C-26.77140625 124.64972656 -27.2303125 125.16664063 -27.703125 125.69921875 C-28.31671875 126.35792969 -28.9303125 127.01664062 -29.5625 127.6953125 C-30.46742187 128.68724609 -30.46742187 128.68724609 -31.390625 129.69921875 C-33.3125 131.1328125 -33.3125 131.1328125 -35.20092773 130.92480469 C-39.30948751 129.38379788 -42.07864837 125.87810582 -45.125 122.8203125 C-46.18364258 121.80420898 -46.18364258 121.80420898 -47.26367188 120.76757812 C-47.92560547 120.10822266 -48.58753906 119.44886719 -49.26953125 118.76953125 C-50.18182495 117.86787231 -50.18182495 117.86787231 -51.11254883 116.94799805 C-52.3125 115.1328125 -52.3125 115.1328125 -52.16674805 113.05786133 C-51.3125 111.1328125 -51.3125 111.1328125 -48.6875 108.6953125 C-47.90375 107.8496875 -47.12 107.0040625 -46.3125 106.1328125 C-46.71615208 101.24779854 -49.10933321 97.17716025 -51.25390625 92.8515625 C-52.34461385 90.0503356 -52.52260117 88.10655217 -52.3125 85.1328125 C-53.16714844 85.14441406 -54.02179687 85.15601562 -54.90234375 85.16796875 C-56.00707031 85.17699219 -57.11179687 85.18601562 -58.25 85.1953125 C-59.35214844 85.20691406 -60.45429687 85.21851562 -61.58984375 85.23046875 C-64.3125 85.1328125 -64.3125 85.1328125 -65.3125 84.1328125 C-65.41196453 82.36422057 -65.44330217 80.59169799 -65.4453125 78.8203125 C-65.44660156 77.74523437 -65.44789062 76.67015625 -65.44921875 75.5625 C-65.44341797 73.86480469 -65.44341797 73.86480469 -65.4375 72.1328125 C-65.44136719 71.00101562 -65.44523437 69.86921875 -65.44921875 68.703125 C-65.44792969 67.62804687 -65.44664063 66.55296875 -65.4453125 65.4453125 C-65.44418457 64.45144531 -65.44305664 63.45757812 -65.44189453 62.43359375 C-65.3125 60.1328125 -65.3125 60.1328125 -64.3125 59.1328125 C-62.29285801 59.06037197 -60.27082876 59.04904062 -58.25 59.0703125 C-56.59291016 59.08384766 -56.59291016 59.08384766 -54.90234375 59.09765625 C-54.04769531 59.10925781 -53.19304688 59.12085938 -52.3125 59.1328125 C-52.250625 58.0190625 -52.18875 56.9053125 -52.125 55.7578125 C-51.58055854 51.05048791 -49.61692545 47.49518593 -47.2734375 43.4296875 C-46.13806783 41.21580612 -46.13806783 41.21580612 -46.5 38.9921875 C-47.30952043 36.81242918 -47.30952043 36.81242918 -49.9375 34.6328125 C-50.72125 33.8078125 -51.505 32.9828125 -52.3125 32.1328125 C-51.8360608 24.95644708 -42.93231575 18.59953666 -37.953125 14.03125 C-36.3125 13.1328125 -36.3125 13.1328125 -34.26171875 13.3203125 C-32.3125 14.1328125 -32.3125 14.1328125 -29.875 16.7578125 C-29.029375 17.5415625 -28.18375 18.3253125 -27.3125 19.1328125 C-23.42327465 18.80433063 -20.24148136 17.3032848 -16.75 15.6328125 C-13.61538626 14.1372409 -10.72029675 12.83842689 -7.3125 12.1328125 C-7.22162109 10.95912109 -7.22162109 10.95912109 -7.12890625 9.76171875 C-7.04511719 8.74980469 -6.96132812 7.73789062 -6.875 6.6953125 C-6.79378906 5.68597656 -6.71257812 4.67664063 -6.62890625 3.63671875 C-6.06223062 -0.84771429 -4.08838342 0.00463986 0 0 Z M-1.3125 5.1328125 C-1.3125 8.7628125 -1.3125 12.3928125 -1.3125 16.1328125 C-3.354375 16.41125 -3.354375 16.41125 -5.4375 16.6953125 C-11.01520964 17.76304549 -15.582775 20.07606133 -20.48876953 22.83227539 C-24.77446794 25.16468199 -24.77446794 25.16468199 -27.5546875 25 C-30.35765737 23.61720153 -32.21473639 21.40538975 -34.3125 19.1328125 C-37.76451639 20.61002672 -39.96211936 22.57075251 -42.5625 25.2578125 C-43.62210938 26.34449219 -43.62210938 26.34449219 -44.703125 27.453125 C-45.23421875 28.00742187 -45.7653125 28.56171875 -46.3125 29.1328125 C-45.11844521 31.73163764 -44.307769 33.13700282 -42.125 35.0703125 C-41.526875 35.7509375 -40.92875 36.4315625 -40.3125 37.1328125 C-40.6833942 41.19865267 -42.28922798 44.3129278 -44.1875 47.8828125 C-46.76620617 52.89145334 -48.69550086 57.74281536 -50.3125 63.1328125 C-55.2625 63.6278125 -55.2625 63.6278125 -60.3125 64.1328125 C-60.3125 69.4128125 -60.3125 74.6928125 -60.3125 80.1328125 C-56.6825 80.4628125 -53.0525 80.7928125 -49.3125 81.1328125 C-49.08175781 81.96683594 -48.85101563 82.80085938 -48.61328125 83.66015625 C-46.76239449 90.04681294 -44.82029006 95.6502359 -41.16796875 101.23046875 C-40.3125 103.1328125 -40.3125 103.1328125 -40.51171875 105.22265625 C-41.3125 107.1328125 -41.3125 107.1328125 -43.9375 109.6328125 C-44.72125 110.4578125 -45.505 111.2828125 -46.3125 112.1328125 C-46.16778333 116.18487912 -43.54293155 118.20789215 -40.75 120.8828125 C-39.92371094 121.68203125 -39.09742187 122.48125 -38.24609375 123.3046875 C-37.60800781 123.90796875 -36.96992187 124.51125 -36.3125 125.1328125 C-33.71367486 123.93875771 -32.30830968 123.1280815 -30.375 120.9453125 C-29.694375 120.3471875 -29.01375 119.7490625 -28.3125 119.1328125 C-24.10209151 119.50821605 -20.74621863 121.26643292 -17 123.1328125 C-11.92865698 125.54170043 -7.90383014 126.91354465 -2.3125 127.1328125 C-2.3125 131.0928125 -2.3125 135.0528125 -2.3125 139.1328125 C3.2975 139.1328125 8.9075 139.1328125 14.6875 139.1328125 C15.0175 135.5028125 15.3475 131.8728125 15.6875 128.1328125 C16.68910156 127.81828125 17.69070312 127.50375 18.72265625 127.1796875 C27.06946067 124.66145035 27.06946067 124.66145035 34.8125 120.7578125 C37.6875 119.1328125 37.6875 119.1328125 40.25 119.0703125 C43.65116914 120.55287341 45.94014054 122.64102137 48.6875 125.1328125 C55.11511157 119.93283248 55.11511157 119.93283248 59.6875 113.1328125 C59.24277344 112.75769531 58.79804688 112.38257813 58.33984375 111.99609375 C57.77394531 111.48433594 57.20804687 110.97257812 56.625 110.4453125 C56.05652344 109.94644531 55.48804688 109.44757813 54.90234375 108.93359375 C53.6875 107.1328125 53.6875 107.1328125 53.85546875 104.75 C54.72705729 102.00838346 55.80213808 99.53096408 57.0625 96.9453125 C59.49103566 91.76443643 61.16953378 86.64542668 62.6875 81.1328125 C66.3175 80.8028125 69.9475 80.4728125 73.6875 80.1328125 C73.6875 74.8528125 73.6875 69.5728125 73.6875 64.1328125 C70.0575 64.1328125 66.4275 64.1328125 62.6875 64.1328125 C62.52894531 63.38257813 62.37039062 62.63234375 62.20703125 61.859375 C60.76252835 55.52271585 58.94531201 50.06725764 55.7734375 44.38671875 C54.56741769 41.88357692 53.88022337 39.91161451 53.6875 37.1328125 C54.90234375 35.33203125 54.90234375 35.33203125 56.625 33.8203125 C57.19089844 33.30855469 57.75679688 32.79679687 58.33984375 32.26953125 C58.78457031 31.89441406 59.22929687 31.51929687 59.6875 31.1328125 C58.21028578 27.68079611 56.24955999 25.48319314 53.5625 22.8828125 C52.47582031 21.82320312 52.47582031 21.82320312 51.3671875 20.7421875 C50.81289062 20.21109375 50.25859375 19.68 49.6875 19.1328125 C47.08867486 20.32686729 45.68330968 21.1375435 43.75 23.3203125 C43.069375 23.9184375 42.38875 24.5165625 41.6875 25.1328125 C37.91334245 24.74260299 34.88568735 23.40814755 31.5 21.7578125 C26.31912393 19.32927684 21.20011418 17.65077872 15.6875 16.1328125 C15.1925 10.6878125 15.1925 10.6878125 14.6875 5.1328125 C9.4075 5.1328125 4.1275 5.1328125 -1.3125 5.1328125 Z " fill="#4D4B70" transform="translate(83.3125,17.8671875)"/>
<path d="M0 0 C-0.33 1.65 -0.66 3.3 -1 5 C-1.75023437 5.13535156 -2.50046875 5.27070312 -3.2734375 5.41015625 C-13.27881675 7.51456221 -21.24317287 11.89893959 -27.6875 19.97265625 C-32.57943449 27.52894792 -35.15193393 34.80660663 -35.0625 43.75 C-35.04896484 45.50570312 -35.04896484 45.50570312 -35.03515625 47.296875 C-35.02355469 48.18890625 -35.01195312 49.0809375 -35 50 C-33.60974609 49.98259766 -33.60974609 49.98259766 -32.19140625 49.96484375 C-30.99386719 49.95582031 -29.79632813 49.94679687 -28.5625 49.9375 C-27.36753906 49.92589844 -26.17257813 49.91429687 -24.94140625 49.90234375 C-22 50 -22 50 -21 51 C-20.84259395 52.70563778 -20.74906608 54.41727244 -20.68359375 56.12890625 C-20.64169922 57.16337891 -20.59980469 58.19785156 -20.55664062 59.26367188 C-20.51732422 60.35228516 -20.47800781 61.44089844 -20.4375 62.5625 C-20.39431641 63.65498047 -20.35113281 64.74746094 -20.30664062 65.87304688 C-20.20017932 68.58189564 -20.09816484 71.29083992 -20 74 C-19.34 74.33 -18.68 74.66 -18 75 C-18 63.45 -18 51.9 -18 40 C-13.05 40 -8.1 40 -3 40 C-2 41 -2 41 -1.90234375 44.84545898 C-1.90930823 46.56236311 -1.92140884 48.27925091 -1.9375 49.99609375 C-1.94128662 50.8999733 -1.94507324 51.80385284 -1.94897461 52.73512268 C-1.96539683 56.6191243 -1.99350252 60.50302275 -2.02050781 64.38696289 C-2.03852835 67.21500162 -2.0506649 70.04302349 -2.0625 72.87109375 C-2.07079834 73.75445908 -2.07909668 74.6378244 -2.08764648 75.54795837 C-2.24620964 79.90993535 -2.24620964 79.90993535 -1 84 C-8.38750799 85.72375186 -12.54282275 84.45190223 -19.140625 80.79296875 C-28.66442341 74.82107876 -35.42047064 66.68904355 -38.9375 55.875 C-41.67471762 43.84157157 -41.30782654 31.81113562 -35 21 C-27.73924734 9.52332644 -14.40131539 -1.63651311 0 0 Z " fill="#514F74" transform="translate(87,47)"/>
<path d="M0 0 C3.64742186 0.55504246 4.98226031 1.77381272 7.25 4.625 C10.76476138 8.82150389 14.48552481 12.85949552 19 16 C19.99 16 20.98 16 22 16 C24.20142332 13.5609294 24.20142332 13.5609294 26 11 C24.02 10.34 22.04 9.68 20 9 C20 7.68 20 6.36 20 5 C22.47923801 4.97314905 24.9581884 4.95323453 27.4375 4.9375 C28.14455078 4.92912109 28.85160156 4.92074219 29.58007812 4.91210938 C31.38693559 4.90346412 33.19387603 4.94779989 35 5 C36 6 36 6 36.09765625 9.16015625 C36.08605469 10.44792969 36.07445312 11.73570313 36.0625 13.0625 C36.05347656 14.35285156 36.04445313 15.64320312 36.03515625 16.97265625 C36.02355469 17.97167969 36.01195312 18.97070312 36 20 C34.68 20.33 33.36 20.66 32 21 C31.01 18.03 31.01 18.03 30 15 C26.71211176 18.11016455 24.16264012 21.01618925 22 25 C17.83266235 24.50972498 16.25346946 22.36727255 13.625 19.25 C10.2847185 15.42076282 7.18998765 11.89308671 3 9 C-0.94744718 10.31581573 -2.47837053 12.84974033 -4.875 16.0625 C-5.32770264 16.65160156 -5.78040527 17.24070312 -6.24682617 17.84765625 C-8.60815252 20.96138064 -10.57949854 23.98679471 -12.3125 27.5 C-15.08142068 32.24102965 -19.92785457 33.24564893 -24.8984375 34.90625 C-27.48193284 35.81730629 -29.36394432 36.67154977 -31.5625 38.25 C-33.81769002 39.86911079 -35.23754551 40.80268182 -38 41 C-38.66 40.34 -39.32 39.68 -40 39 C-39.625 36.375 -39.625 36.375 -39 34 C-38.45472656 33.84144531 -37.90945312 33.68289062 -37.34765625 33.51953125 C-26.48116535 30.15742039 -17.92867525 25.01091393 -11.0625 15.8125 C-10.6308252 15.24313721 -10.19915039 14.67377441 -9.75439453 14.0871582 C-6.31578506 9.5145666 -3.06960408 4.8290113 0 0 Z " fill="#4F4D72" transform="translate(94,49)"/>
<path d="M0 0 C2.31 0 4.62 0 7 0 C7 18.15 7 36.3 7 55 C4.69 55 2.38 55 0 55 C0 36.85 0 18.7 0 0 Z " fill="#EFEFF2" transform="translate(92,73)"/>
<path d="M0 0 C-0.33 1.65 -0.66 3.3 -1 5 C-1.75023437 5.13535156 -2.50046875 5.27070312 -3.2734375 5.41015625 C-13.27881675 7.51456221 -21.24317287 11.89893959 -27.6875 19.97265625 C-32.72429536 27.75270623 -35.14758652 35.06065531 -35.0625 44.25 C-35.05347656 45.51328125 -35.04445313 46.7765625 -35.03515625 48.078125 C-35.02355469 49.04234375 -35.01195312 50.0065625 -35 51 C-32.03 51 -29.06 51 -26 51 C-26 51.99 -26 52.98 -26 54 C-28.31 54 -30.62 54 -33 54 C-33 55.65 -33 57.3 -33 59 C-33.99 59.495 -33.99 59.495 -35 60 C-38.50146224 57.66569184 -38.76483826 56.21542271 -39.62939453 52.22460938 C-41.68469048 39.88741787 -40.17288268 29.17649198 -33.42578125 18.51171875 C-25.99417758 8.20448289 -13.3490385 -1.51693619 0 0 Z " fill="#504E73" transform="translate(87,47)"/>
<path d="M0 0 C1.93166016 0.01740234 1.93166016 0.01740234 3.90234375 0.03515625 C5.19269531 0.04417969 6.48304687 0.05320312 7.8125 0.0625 C8.81152344 0.07410156 9.81054688 0.08570312 10.83984375 0.09765625 C9.84984375 0.77828125 9.84984375 0.77828125 8.83984375 1.47265625 C7.84984375 2.27703125 7.84984375 2.27703125 6.83984375 3.09765625 C6.83984375 3.75765625 6.83984375 4.41765625 6.83984375 5.09765625 C4.52984375 5.09765625 2.21984375 5.09765625 -0.16015625 5.09765625 C-0.16015625 23.24765625 -0.16015625 41.39765625 -0.16015625 60.09765625 C1.48984375 60.09765625 3.13984375 60.09765625 4.83984375 60.09765625 C4.83984375 63.09765625 4.83984375 63.09765625 3.83984375 65.09765625 C-1.44015625 65.09765625 -6.72015625 65.09765625 -12.16015625 65.09765625 C-12.16015625 64.43765625 -12.16015625 63.77765625 -12.16015625 63.09765625 C-9.0720593 61.33302942 -7.92703489 61.09765625 -4.16015625 61.09765625 C-4.16237686 60.34819229 -4.16459747 59.59872833 -4.16688538 58.82655334 C-4.18688804 51.77783334 -4.20213025 44.7291231 -4.21196842 37.68038273 C-4.21719627 34.05619665 -4.22429212 30.43203395 -4.2355957 26.80786133 C-4.24642809 23.3130565 -4.25243383 19.81827421 -4.25503349 16.3234539 C-4.25779176 14.33526236 -4.26560313 12.34707994 -4.27345276 10.35890198 C-4.27352829 9.15773239 -4.27360382 7.95656281 -4.27368164 6.71899414 C-4.27590225 5.6553212 -4.27812286 4.59164825 -4.28041077 3.4957428 C-4.09676003 -0.16657584 -3.75357465 0.11599427 0 0 Z " fill="#48466D" transform="translate(92.16015625,67.90234375)"/>
<path d="M0 0 C2.31 0 4.62 0 7 0 C7.14867251 4.8928504 7.25736293 9.78437812 7.32958984 14.67895508 C7.35970545 16.34259957 7.4006085 18.00608602 7.45263672 19.66918945 C7.52569321 22.06501254 7.55950481 24.45873253 7.5859375 26.85546875 C7.61690521 27.5952446 7.64787292 28.33502045 7.67977905 29.09721375 C7.68167285 32.02386679 7.57126942 34.31117596 5.65948486 36.61636353 C1.69046853 40 1.69046853 40 0 40 C0 26.8 0 13.6 0 0 Z " fill="#EDEDF1" transform="translate(111,82)"/>
<path d="M0 0 C2.31 0 4.62 0 7 0 C7 11.88 7 23.76 7 36 C2 35 2 35 0 34 C0 22.78 0 11.56 0 0 Z " fill="#ECEBEF" transform="translate(73,91)"/>
<path d="M0 0 C1.00023193 0.00523682 2.00046387 0.01047363 3.03100586 0.01586914 C4.1105957 0.0190918 5.19018555 0.02231445 6.30249023 0.02563477 C8.00695312 0.03820312 8.00695312 0.03820312 9.74584961 0.05102539 C11.45611328 0.05779297 11.45611328 0.05779297 13.20092773 0.06469727 C16.02845312 0.07652792 18.85587601 0.09301129 21.68334961 0.11352539 C21.73784799 1.84233521 21.77636649 3.57165251 21.80834961 5.30102539 C21.83155273 6.26395508 21.85475586 7.22688477 21.87866211 8.21899414 C21.67470401 11.24165317 20.95209593 13.38122524 19.68334961 16.11352539 C19.02334961 16.11352539 18.36334961 16.11352539 17.68334961 16.11352539 C17.68334961 12.48352539 17.68334961 8.85352539 17.68334961 5.11352539 C12.40334961 5.11352539 7.12334961 5.11352539 1.68334961 5.11352539 C1.68334961 8.74352539 1.68334961 12.37352539 1.68334961 16.11352539 C1.35334961 16.11352539 1.02334961 16.11352539 0.68334961 16.11352539 C0.35334961 14.46352539 0.02334961 12.81352539 -0.31665039 11.11352539 C-2.29665039 12.10352539 -2.29665039 12.10352539 -4.31665039 13.11352539 C-4.17631928 11.13396099 -4.02923809 9.15487398 -3.87915039 7.17602539 C-3.79793945 6.07387695 -3.71672852 4.97172852 -3.63305664 3.83618164 C-3.20549995 0.15708267 -3.20549995 0.15708267 0 0 Z " fill="#514F74" transform="translate(80.316650390625,17.886474609375)"/>
<path d="M0 0 C0.66 0.33 1.32 0.66 2 1 C3.77267631 6.63011982 4.31339776 11.75014079 4.25 17.625 C4.25773438 18.34945312 4.26546875 19.07390625 4.2734375 19.8203125 C4.25735381 24.25941067 3.66217445 27.81818015 2 32 C0.35 32 -1.3 32 -3 32 C-2.83757812 31.03320312 -2.67515625 30.06640625 -2.5078125 29.0703125 C-1.88051317 24.66591759 -1.85290056 20.31698805 -1.875 15.875 C-1.87113281 15.08996094 -1.86726563 14.30492188 -1.86328125 13.49609375 C-1.86996748 9.53116038 -2.02076054 5.87032739 -3 2 C-2.01 1.34 -1.02 0.68 0 0 Z " fill="#575578" transform="translate(129,73)"/>
<path d="M0 0 C2 3 2 3 2 7 C5.96 7 9.92 7 14 7 C13.67 8.65 13.34 10.3 13 12 C12.34 12 11.68 12 11 12 C11.14129287 14.41700987 11.28786487 16.83350429 11.4375 19.25 C11.47681641 19.93191406 11.51613281 20.61382812 11.55664062 21.31640625 C11.76666472 24.64448041 12.01934002 27.80255402 13 31 C11.22992286 31.08114106 9.45877902 31.13925505 7.6875 31.1875 C6.70136719 31.22230469 5.71523437 31.25710937 4.69921875 31.29296875 C2 31 2 31 -1 28 C2.63 28 6.26 28 10 28 C10 22.72 10 17.44 10 12 C6.37 12 2.74 12 -1 12 C-3.125 4.25 -3.125 4.25 -2 2 C-1.34 2 -0.68 2 0 2 C0 1.34 0 0.68 0 0 Z " fill="#504E73" transform="translate(147,70)"/>
<path d="M0 0 C4.29 0 8.58 0 13 0 C13 0.33 13 0.66 13 1 C9.7 1 6.4 1 3 1 C3 6.28 3 11.56 3 17 C6.63 17 10.26 17 14 17 C15 22 15 22 14.1875 24.25 C13 26 13 26 11 27 C11 25.35 11 23.7 11 22 C7.04 22 3.08 22 -1 22 C-0.67 14.74 -0.34 7.48 0 0 Z " fill="#656484" transform="translate(20,81)"/>
<path d="M0 0 C0.33 0 0.66 0 1 0 C1.33 4.95 1.66 9.9 2 15 C4.97 15 7.94 15 11 15 C11 15.99 11 16.98 11 18 C8.69 18 6.38 18 4 18 C4 19.65 4 21.3 4 23 C3.34 23.33 2.68 23.66 2 24 C-1.45308179 21.69794547 -1.79866838 20.3057604 -2.6484375 16.359375 C-4.20663379 5.90214656 -4.20663379 5.90214656 -1.54296875 1.703125 C-0.77919922 0.86007813 -0.77919922 0.86007813 0 0 Z " fill="#46446B" transform="translate(50,83)"/>
<path d="M0 0 C3.96 0 7.92 0 12 0 C12.99 0.99 13.98 1.98 15 3 C11.37 3 7.74 3 4 3 C4.03480469 4.19238281 4.06960937 5.38476562 4.10546875 6.61328125 C4.13360753 8.17967342 4.1609076 9.74608081 4.1875 11.3125 C4.22520508 12.49102539 4.22520508 12.49102539 4.26367188 13.69335938 C4.27333984 14.45068359 4.28300781 15.20800781 4.29296875 15.98828125 C4.3086792 16.68477783 4.32438965 17.38127441 4.34057617 18.09887695 C4 20 4 20 1 23 C4.63 23 8.26 23 12 23 C12 23.33 12 23.66 12 24 C8.04 24 4.08 24 0 24 C0 16.08 0 8.16 0 0 Z " fill="#45436B" transform="translate(18,78)"/>
<path d="M0 0 C1.65 0 3.3 0 5 0 C5 0.99 5 1.98 5 3 C10.28 3 15.56 3 21 3 C21 3.33 21 3.66 21 4 C15.72 4 10.44 4 5 4 C5 7.63 5 11.26 5 15 C4.67 15 4.34 15 4 15 C3.67 13.35 3.34 11.7 3 10 C1.02 10.99 1.02 10.99 -1 12 C-0.67 8.04 -0.34 4.08 0 0 Z " fill="#686686" transform="translate(77,19)"/>
<path d="M0 0 C0.33 0 0.66 0 1 0 C1 3.96 1 7.92 1 12 C3.31 12.33 5.62 12.66 8 13 C8.33 14.32 8.66 15.64 9 17 C4.48281619 18.36884358 1.41225737 17.47075246 -3 16 C-2.5359375 14.824375 -2.5359375 14.824375 -2.0625 13.625 C-0.73664193 9.10148422 -0.35188915 4.68568186 0 0 Z " fill="#535176" transform="translate(102,19)"/>
<path d="M0 0 C0.66 0.33 1.32 0.66 2 1 C2 6.61 2 12.22 2 18 C1.34 18 0.68 18 0 18 C-2 16 -2 16 -2.1953125 12.9609375 C-2.17210937 11.77757813 -2.14890625 10.59421875 -2.125 9.375 C-2.10695312 8.18648437 -2.08890625 6.99796875 -2.0703125 5.7734375 C-2.04710937 4.85820313 -2.02390625 3.94296875 -2 3 C-1.34 3 -0.68 3 0 3 C0 2.01 0 1.02 0 0 Z " fill="#4B496F" transform="translate(131,81)"/>
<path d="M0 0 C1.98 0 3.96 0 6 0 C6 4.29 6 8.58 6 13 C0.0952381 7.0952381 0.0952381 7.0952381 -0.125 2.25 C-0.063125 1.13625 -0.063125 1.13625 0 0 Z " fill="#F4F4F6" transform="translate(55,102)"/>
<path d="M0 0 C5.28 0 10.56 0 16 0 C16 0.99 16 1.98 16 3 C10.72 3 5.44 3 0 3 C0 2.01 0 1.02 0 0 Z " fill="#444269" transform="translate(82,19)"/>
<path d="M0 0 C0.33 0 0.66 0 1 0 C1.06058594 1.03640625 1.12117187 2.0728125 1.18359375 3.140625 C1.26803371 4.51042873 1.35267997 5.88021975 1.4375 7.25 C1.47681641 7.93191406 1.51613281 8.61382812 1.55664062 9.31640625 C1.76666472 12.64448041 2.01934002 15.80255402 3 19 C1.22992286 19.08114106 -0.54122098 19.13925505 -2.3125 19.1875 C-3.29863281 19.22230469 -4.28476563 19.25710937 -5.30078125 19.29296875 C-8 19 -8 19 -11 16 C-7.37 16 -3.74 16 0 16 C0 10.72 0 5.44 0 0 Z " fill="#636182" transform="translate(157,82)"/>
<path d="M0 0 C0.89203125 0.01804687 1.7840625 0.03609375 2.703125 0.0546875 C3.71632812 0.08949219 3.71632812 0.08949219 4.75 0.125 C4.75 1.445 4.75 2.765 4.75 4.125 C0.13 4.125 -4.49 4.125 -9.25 4.125 C-9.25 3.465 -9.25 2.805 -9.25 2.125 C-6.03817851 0.21891902 -3.71117397 -0.09766247 0 0 Z " fill="#59577A" transform="translate(155.25,77.875)"/>
<path d="M0 0 C2.00720923 0.28674418 4.0085944 0.61866701 6 1 C6.33 1.99 6.66 2.98 7 4 C5.75 5.5625 5.75 5.5625 4 7 C1.8125 6.6875 1.8125 6.6875 0 6 C-0.38218767 4.34385343 -0.71395102 2.67542976 -1 1 C-0.67 0.67 -0.34 0.34 0 0 Z " fill="#565478" transform="translate(55,83)"/>
<path d="M0 0 C0.33 0 0.66 0 1 0 C1.06058594 0.67546875 1.12117188 1.3509375 1.18359375 2.046875 C1.30927734 3.38492188 1.30927734 3.38492188 1.4375 4.75 C1.55931641 6.07257813 1.55931641 6.07257813 1.68359375 7.421875 C1.96238465 9.69350452 2.38790577 11.79851823 3 14 C2.42024414 13.84152588 1.84048828 13.68305176 1.24316406 13.51977539 C-2.21220398 12.71911382 -5.71910303 12.62776918 -9.25 12.4375 C-9.99507813 12.39431641 -10.74015625 12.35113281 -11.5078125 12.30664062 C-13.338349 12.20103275 -15.16915176 12.10005799 -17 12 C-17 11.67 -17 11.34 -17 11 C-11.39 11 -5.78 11 0 11 C0 7.37 0 3.74 0 0 Z " fill="#59577A" transform="translate(98,146)"/>
<path d="M0 0 C-0.33 1.65 -0.66 3.3 -1 5 C-3.31 5 -5.62 5 -8 5 C-8 4.01 -8 3.02 -8 2 C-8.66 1.67 -9.32 1.34 -10 1 C-6.52674819 -0.1577506 -3.63932552 -0.06866652 0 0 Z " fill="#575579" transform="translate(87,47)"/>
<path d="M0 0 C0.89674777 2.51089376 1.13172674 3.64535109 0.1875 6.1875 C-1 8 -1 8 -3 9 C-3 7.35 -3 5.7 -3 4 C-6.96 4 -10.92 4 -15 4 C-15 3.67 -15 3.34 -15 3 C-14.25234375 2.95101562 -13.5046875 2.90203125 -12.734375 2.8515625 C-11.74953125 2.77679688 -10.7646875 2.70203125 -9.75 2.625 C-8.28820312 2.52058594 -8.28820312 2.52058594 -6.796875 2.4140625 C-4.10366811 2.01534751 -2.33036721 1.36492937 0 0 Z " fill="#59577B" transform="translate(34,99)"/>
<path d="M0 0 C0 1.32 0 2.64 0 4 C-2.64 4.66 -5.28 5.32 -8 6 C-8 5.01 -8 4.02 -8 3 C-8.66 2.34 -9.32 1.68 -10 1 C-6.61981469 -0.04005702 -3.5219721 -0.08004482 0 0 Z " fill="#535176" transform="translate(112,143)"/>
<path d="M0 0 C0 0.99 0 1.98 0 3 C-2.64738916 4.4606285 -3.89448334 5 -7 5 C-7 4.34 -7 3.68 -7 3 C-8.32 2.67 -9.64 2.34 -11 2 C-3.57142857 -1.57142857 -3.57142857 -1.57142857 0 0 Z " fill="#49476D" transform="translate(68,81)"/>
<path d="M0 0 C4.75 0.875 4.75 0.875 7 2 C7 2.66 7 3.32 7 4 C6.34 4 5.68 4 5 4 C5 4.66 5 5.32 5 6 C3.35 5.67 1.7 5.34 0 5 C0 3.35 0 1.7 0 0 Z " fill="#5B597C" transform="translate(105,50)"/>
<path d="M0 0 C0.66 0.33 1.32 0.66 2 1 C1.74438677 3.3431213 1.40729228 5.67843403 1 8 C0.01 8.495 0.01 8.495 -1 9 C-1.66 6.69 -2.32 4.38 -3 2 C-2.01 1.34 -1.02 0.68 0 0 Z " fill="#4F4E73" transform="translate(129,73)"/>
<path d="M0 0 C0 3 0 3 -1.53125 4.82421875 C-2.1809375 5.43910156 -2.830625 6.05398437 -3.5 6.6875 C-4.1496875 7.31011719 -4.799375 7.93273438 -5.46875 8.57421875 C-5.9740625 9.04472656 -6.479375 9.51523438 -7 10 C-7.66 9.67 -8.32 9.34 -9 9 C-7.87895467 7.68412059 -6.75303035 6.37239647 -5.625 5.0625 C-4.99851562 4.33160156 -4.37203125 3.60070313 -3.7265625 2.84765625 C-2 1 -2 1 0 0 Z " fill="#555377" transform="translate(64,55)"/>
<path d="M0 0 C0.93423645 3.01031744 1.04449911 3.86650268 0 7 C-0.66 7 -1.32 7 -2 7 C-2 10.63 -2 14.26 -2 18 C-2.33 18 -2.66 18 -3 18 C-3.08150744 15.93816367 -3.1394194 13.87538651 -3.1875 11.8125 C-3.22230469 10.66394531 -3.25710937 9.51539062 -3.29296875 8.33203125 C-2.97622579 4.72960801 -2.08533398 2.90633161 0 0 Z " fill="#716F8E" transform="translate(131,77)"/>
<path d="M0 0 C0.93065133 2.60582371 1.14917407 3.64198224 0.0625 6.25 C-0.4634375 7.11625 -0.4634375 7.11625 -1 8 C-1.66 6.68 -2.32 5.36 -3 4 C-2.01 3.67 -1.02 3.34 0 3 C0 2.01 0 1.02 0 0 Z M-5 6 C-4.01 6.495 -4.01 6.495 -3 7 C-3.99 7.495 -3.99 7.495 -5 8 C-5 7.34 -5 6.68 -5 6 Z " fill="#46446B" transform="translate(147,105)"/>
</svg>